<?xml version="1.0" standalone="no"?>
<!DOCTYPE svg PUBLIC "-//W3C//DTD SVG 20010904//EN"
 "http://www.w3.org/TR/2001/REC-SVG-20010904/DTD/svg10.dtd">
<svg version="1.0" xmlns="http://www.w3.org/2000/svg"
 width="48.000000pt" height="48.000000pt" viewBox="0 0 48.000000 48.000000"
 preserveAspectRatio="xMidYMid meet">

<g transform="translate(0.000000,48.000000) scale(0.100000,-0.100000)"
fill="#000000" stroke="none">
<path d="M136 391 c-20 -22 -14 -41 13 -41 22 0 55 35 46 49 -10 17 -40 13
-59 -8z"/>
<path d="M30 327 c0 -25 17 -47 37 -47 19 0 16 34 -5 53 -25 23 -32 21 -32 -6z"/>
<path d="M284 278 c-8 -12 30 -48 52 -48 22 0 27 20 8 41 -19 21 -49 25 -60 7z"/>
<path d="M417 212 c-20 -22 -22 -52 -4 -52 20 0 37 22 37 47 0 28 -11 29 -33
5z"/>
</g>
</svg>
