<?xml version="1.0" standalone="no"?>
<!DOCTYPE svg PUBLIC "-//W3C//DTD SVG 20010904//EN"
 "http://www.w3.org/TR/2001/REC-SVG-20010904/DTD/svg10.dtd">
<svg version="1.0" xmlns="http://www.w3.org/2000/svg"
 width="64.000000pt" height="64.000000pt" viewBox="0 0 64.000000 64.000000"
 preserveAspectRatio="xMidYMid meet">

<g transform="translate(0.000000,64.000000) scale(0.100000,-0.100000)"
fill="#000000" stroke="none">
<path d="M57 582 c-15 -16 -17 -45 -17 -200 l0 -182 30 0 c28 0 30 -2 30 -40
0 -33 3 -40 20 -40 17 0 20 7 20 40 0 33 3 40 20 40 17 0 20 -7 20 -40 0 -33
3 -40 20 -40 17 0 20 7 20 40 l0 40 60 0 60 0 0 -40 c0 -33 3 -40 20 -40 17 0
20 7 20 40 0 33 3 40 20 40 17 0 20 -7 20 -40 0 -33 3 -40 20 -40 17 0 20 7
20 40 0 33 3 40 20 40 17 0 20 -7 20 -40 0 -33 3 -40 20 -40 17 0 20 7 20 40
0 38 2 40 30 40 l30 0 0 133 c0 171 3 167 -143 167 -111 0 -137 9 -137 49 0
40 -31 51 -142 51 -89 0 -107 -3 -121 -18z m353 -206 c0 -100 -10 -126 -50
-126 -24 0 -50 26 -50 50 0 28 30 52 57 47 19 -3 23 0 23 20 0 18 -4 23 -17
19 -10 -2 -33 -7 -50 -11 -32 -6 -33 -8 -33 -55 0 -50 -16 -74 -46 -68 -45 9
-42 69 5 76 19 3 21 10 21 62 l0 59 38 6 c20 4 42 8 47 10 6 2 20 4 33 4 21 1
22 -2 22 -93z m-280 57 c0 -5 -7 -17 -15 -27 -19 -25 -19 -77 0 -102 17 -22
19 -34 5 -34 -13 0 -40 54 -40 80 0 27 29 90 41 90 5 0 9 -3 9 -7z m414 -27
c9 -19 16 -44 16 -56 0 -26 -27 -80 -40 -80 -14 0 -12 12 5 34 8 11 15 34 15
51 0 17 -7 40 -15 51 -17 22 -19 34 -6 34 5 0 16 -15 25 -34z m-384 -1 c0 -3
-6 -14 -12 -25 -10 -15 -10 -27 -1 -50 9 -24 9 -30 0 -27 -21 7 -32 54 -19 82
10 21 32 35 32 20z m352 -20 c13 -28 2 -75 -19 -82 -9 -3 -9 3 0 27 9 23 9 35
-1 50 -15 24 -15 30 -2 30 6 0 16 -11 22 -25z m-327 -30 c-1 -14 -4 -28 -8
-31 -9 -10 -20 23 -13 41 9 24 22 17 21 -10z m290 -3 c0 -32 -18 -32 -19 1 -1
15 3 26 9 24 5 -2 10 -13 10 -25z"/>
<path d="M333 438 c-31 -7 -43 -14 -43 -27 0 -16 5 -17 43 -10 23 4 45 8 50 9
4 0 7 9 7 20 0 11 -3 20 -7 19 -5 -1 -27 -5 -50 -11z"/>
<path d="M340 314 c-11 -12 -10 -18 3 -32 16 -15 18 -15 34 0 13 14 14 20 3
32 -7 9 -16 16 -20 16 -4 0 -13 -7 -20 -16z"/>
<path d="M234 299 c-10 -17 13 -36 27 -22 12 12 4 33 -11 33 -5 0 -12 -5 -16
-11z"/>
</g>
</svg>
