<?xml version="1.0" encoding="UTF-8"?>
<svg version="1.1" xmlns="http://www.w3.org/2000/svg" width="767" height="192">
<path d="M0 0 C7.37225437 -0.04662738 14.74447621 -0.08202201 22.11684895 -0.10362434 C25.54125034 -0.11399967 28.96554981 -0.12804241 32.38989258 -0.15087891 C36.33934246 -0.17704824 40.28875309 -0.18652441 44.23828125 -0.1953125 C46.05613884 -0.21079636 46.05613884 -0.21079636 47.91072083 -0.22659302 C69.06865471 -0.22934744 87.2650684 6.17209111 102.7890625 20.765625 C116.62176906 34.74496803 122.70099538 54.17503723 123.25 73.5 C123.19957761 75.00146663 123.11187422 76.50185828 123 78 C122.92007813 79.0828125 122.84015625 80.165625 122.7578125 81.28125 C121.3342703 95.1099457 117.12148672 108.5983021 109 120 C108.43925781 120.81597656 107.87851562 121.63195312 107.30078125 122.47265625 C96.49234716 137.13315281 79.94709346 146.20847124 62.17906189 149.52684021 C56.39388218 150.32855382 50.54850454 150.13033334 44.72094727 150.11352539 C43.38003034 150.11324298 42.03911325 150.11340231 40.69819641 150.1139679 C37.07474586 150.11425375 33.45132869 150.10839134 29.82788587 150.10139394 C26.0349121 150.09512505 22.2419375 150.09455381 18.44895935 150.09336853 C11.27391015 150.09026562 4.09887626 150.08206628 -3.07616621 150.07201904 C-11.2478759 150.06082557 -19.41958634 150.05533931 -27.5913018 150.05032361 C-44.39421015 150.03988277 -61.19710312 150.02230352 -78 150 C-76.82396697 146.38398887 -75.66701466 143.10831724 -73.72265625 139.8359375 C-73.07586914 138.74152344 -73.07586914 138.74152344 -72.41601562 137.625 C-71.96935547 136.8825 -71.52269531 136.14 -71.0625 135.375 C-70.61970703 134.62476563 -70.17691406 133.87453125 -69.72070312 133.1015625 C-68.50136524 131.05176647 -67.28447721 129.00966365 -66 127 C-65.57643974 126.31083811 -65.15287949 125.62167622 -64.71648407 124.91163063 C-63 123 -63 123 -60.84996796 122.49777794 C-60.01159645 122.4966884 -59.17322495 122.49559887 -58.30944824 122.49447632 C-56.86304459 122.47794258 -56.86304459 122.47794258 -55.38742065 122.46107483 C-53.80249313 122.47333351 -53.80249313 122.47333351 -52.18554688 122.48583984 C-51.07136383 122.47871475 -49.95718079 122.47158966 -48.80923462 122.46424866 C-45.11222848 122.44489435 -41.41579039 122.45326449 -37.71875 122.4609375 C-35.14863243 122.45103384 -32.57852196 122.43909386 -30.00842285 122.42520142 C-23.91941507 122.39606922 -17.83059266 122.38324583 -11.74152231 122.37962496 C-0.22090189 122.37260008 11.29954747 122.33700452 22.8200531 122.2861824 C26.59497077 122.27364109 30.36971912 122.27435246 34.14465332 122.27645874 C36.47990038 122.26987244 38.8151463 122.262865 41.15039062 122.25537109 C42.19081512 122.25949509 43.23123962 122.26361908 44.30319214 122.26786804 C58.61712896 122.1897899 71.55727756 119.05442467 82.25390625 108.98046875 C92.91003062 96.89399212 94.78091243 82.82527924 94.17919922 67.36035156 C93.30979556 55.90886037 87.9558721 46.55891218 79.8125 38.75 C69.02887281 29.69752366 56.63727786 27.68537076 42.9453125 28.12109375 C42.14859634 28.14377319 41.35188019 28.16645264 40.53102112 28.18981934 C37.21942845 28.28984435 33.91027166 28.39654978 30.6015625 28.5690918 C16.66109438 29.25987239 16.66109438 29.25987239 12.70556641 26.25976562 C11.1097583 23.9044118 10.05550059 21.63772723 9 19 C8.16913825 17.56334822 7.31811934 16.13812469 6.4453125 14.7265625 C5.66821103 13.36145425 4.89472857 11.99427906 4.125 10.625 C3.7228125 9.92761719 3.320625 9.23023438 2.90625 8.51171875 C0 3.36152742 0 3.36152742 0 0 Z " fill="#42CCD0" transform="translate(156,29)"/>
<path d="M0 0 C7.36508181 5.48099111 11.99178141 15.50881257 16.625 23.3125 C17.67571878 25.07295395 18.72650191 26.8333695 19.77734375 28.59375 C20.30956543 29.48707031 20.84178711 30.38039063 21.39013672 31.30078125 C23.98019135 35.64346309 26.58434271 39.97766449 29.1875 44.3125 C30.18757108 45.97912402 31.18757255 47.64578981 32.1875 49.3125 C32.66316406 50.10527344 33.13882813 50.89804688 33.62890625 51.71484375 C37.4375 58.0625 37.4375 58.0625 38.57885742 59.96484375 C39.31329929 61.18885962 40.04783584 62.4128187 40.7824707 63.63671875 C42.57989009 66.63147037 44.37558114 69.62723374 46.16796875 72.625 C46.90357036 73.85421183 47.63924783 75.08337828 48.375 76.3125 C48.91688965 77.21875122 48.91688965 77.21875122 49.46972656 78.14331055 C51.60246723 81.70082239 53.76079472 85.2411365 55.94140625 88.76953125 C56.43914551 89.57672607 56.93688477 90.3839209 57.44970703 91.21557617 C58.41995002 92.78684759 59.39343319 94.35612421 60.37060547 95.9230957 C60.8142041 96.64198975 61.25780273 97.36088379 61.71484375 98.1015625 C62.10792725 98.73400879 62.50101074 99.36645508 62.90600586 100.01806641 C64.15334475 102.27780689 65.08414315 104.58919139 66 107 C38.77421768 109.4876835 38.77421768 109.4876835 31.72851562 105.81640625 C28.24867008 102.45212753 26.72611851 98.0864155 25.07617188 93.61914062 C22.98762775 88.53613214 19.95777326 83.94487858 17.125 79.25 C15.92873601 77.19607721 14.73602203 75.14008268 13.546875 73.08203125 C9.73142704 66.51783094 5.83236841 60.00560107 1.90673828 53.50683594 C0.59948078 51.34083992 -0.70254129 49.17187786 -2 47 C-2.4031543 46.32727051 -2.80630859 45.65454102 -3.22167969 44.96142578 C-6 40.23633326 -6 40.23633326 -6 38 C-6.66 38 -7.32 38 -8 38 C-8.27005859 38.71897461 -8.54011719 39.43794922 -8.81835938 40.17871094 C-9.9967546 42.99225127 -11.36044333 45.51275367 -12.90625 48.140625 C-13.48020508 49.12023193 -14.05416016 50.09983887 -14.64550781 51.10913086 C-15.25749023 52.14561768 -15.86947266 53.18210449 -16.5 54.25 C-17.1300293 55.3232251 -17.76005859 56.3964502 -18.40917969 57.50219727 C-20.26965928 60.66998331 -22.13451742 63.83515841 -24 67 C-24.93264123 68.58703421 -25.86497292 70.1742504 -26.796875 71.76171875 C-28.41563052 74.51831121 -30.03675553 77.27348444 -31.66015625 80.02734375 C-33.21369414 82.66300559 -34.76301491 85.30106958 -36.30859375 87.94140625 C-41.8579587 97.41351881 -47.49757653 106.82909178 -53.15942383 116.234375 C-58.42021974 124.99192348 -63.5810714 133.80538912 -68.69628906 142.64868164 C-69.24768555 143.5999292 -69.79908203 144.55117676 -70.3671875 145.53125 C-70.85300293 146.37236328 -71.33881836 147.21347656 -71.83935547 148.08007812 C-73 150 -73 150 -74 151 C-76.21855264 151.08783542 -78.43988496 151.10694609 -80.66015625 151.09765625 C-81.65685585 151.09553383 -81.65685585 151.09553383 -82.6736908 151.09336853 C-84.80333899 151.08775518 -86.93288339 151.07520054 -89.0625 151.0625 C-90.50325369 151.05748671 -91.94400903 151.05292351 -93.38476562 151.04882812 C-96.92321102 151.03778145 -100.46159539 151.02050792 -104 151 C-103.25683313 146.77547388 -102.02015141 144.06445903 -99.6875 140.4375 C-98.95565337 139.28212163 -98.22528093 138.12580865 -97.49609375 136.96875 C-97.09632324 136.33710938 -96.69655273 135.70546875 -96.28466797 135.0546875 C-93.88444832 131.21579571 -91.57253437 127.32369851 -89.25 123.4375 C-88.21750588 121.71350695 -87.18495296 119.98954911 -86.15234375 118.265625 C-85.63269043 117.39744141 -85.11303711 116.52925781 -84.57763672 115.63476562 C-81.99235098 111.31715441 -79.4022181 107.00245357 -76.8125 102.6875 C-75.81247631 101.02084754 -74.81247581 99.35418118 -73.8125 97.6875 C-69.19921875 89.99869792 -64.5859375 82.30989583 -59.97265625 74.62109375 C-59.63129639 74.05213379 -59.28993652 73.48317383 -58.93823242 72.89697266 C-58.21843847 71.69737116 -57.49854628 70.4978286 -56.77856445 69.29833984 C-54.41513531 65.36045054 -52.05438762 61.42096816 -49.6953125 57.48046875 C-46.1586161 51.57485756 -42.61422483 45.673899 -39.06671143 39.77478027 C-37.96270279 37.9379454 -36.85993916 36.10036708 -35.75732422 34.26269531 C-33.85837429 31.09883461 -31.95451284 27.93797177 -30.04760742 24.77890015 C-29.3172577 23.56742633 -28.58837468 22.35506688 -27.86108398 21.14175415 C-12.88509775 -3.83199933 -12.88509775 -3.83199933 0 0 Z " fill="#42CCD0" transform="translate(132,28)"/>
<path d="M0 0 C6.93 0 13.86 0 21 0 C24.85839844 10.2890625 28.71679688 20.578125 32.57519531 30.8671875 C32.81228336 31.49940216 33.04937141 32.13161682 33.29364395 32.7829895 C33.76849761 34.0493065 34.243298 35.31564347 34.71804428 36.58200073 C35.87964388 39.68030289 37.04234675 42.77818364 38.206604 45.87548828 C40.12849191 50.99072742 42.04633403 56.10653547 43.91308594 61.2421875 C44.18659882 61.98960205 44.46011169 62.7370166 44.74191284 63.50708008 C45.42527429 65.37918748 46.10145686 67.25391139 46.77685547 69.12890625 C47.91516971 71.8008774 49.1392764 73.786882 51 76 C53.37621744 72.43567385 53.25295588 70.89390064 53.25878906 66.66430664 C53.26824554 64.70195824 53.26824554 64.70195824 53.27789307 62.69996643 C53.27431291 61.27002834 53.27021086 59.84009147 53.265625 58.41015625 C53.26697234 56.94428951 53.26891345 55.4784232 53.27142334 54.01255798 C53.27437229 50.94005072 53.270085 47.86765976 53.26074219 44.79516602 C53.24935776 40.85971072 53.25590203 36.92452852 53.26788712 32.98908329 C53.27512052 29.96160329 53.27281082 26.93418782 53.26763153 23.90670586 C53.2662986 22.45585536 53.26793025 21.00499898 53.27259064 19.55415535 C53.27767876 17.52446736 53.26854646 15.4947588 53.25878906 13.46508789 C53.25719788 12.31053604 53.25560669 11.15598419 53.25396729 9.96644592 C53.00371177 7.04335501 52.39024018 5.52016071 51 3 C51 2.01 51 1.02 51 0 C59.91 0 68.82 0 78 0 C76 6 76 6 75 8 C74.90898388 9.8485708 74.88246854 11.70046379 74.88647461 13.55126953 C74.88665588 15.31724487 74.88665588 15.31724487 74.88684082 17.11889648 C74.89195679 18.36098877 74.89707275 19.60308105 74.90234375 20.8828125 C74.90335083 22.02097412 74.90435791 23.15913574 74.90539551 24.33178711 C74.91063992 28.59620161 74.9246011 32.86060178 74.9375 37.125 C74.958125 46.65375 74.97875 56.1825 75 66 C80.94 44.22 86.88 22.44 93 0 C120 0 120 0 126 4 C131.4124482 9.56649307 130.57817416 16.16565661 130.53125 23.46484375 C130.5350769 24.77151505 130.53890381 26.07818634 130.54284668 27.42445374 C130.5487267 30.18412291 130.54022971 32.94327237 130.52148438 35.70288086 C130.49871684 39.22463177 130.51181147 42.74516165 130.53577423 46.26686764 C130.55378171 49.64545507 130.54113788 53.02372173 130.53125 56.40234375 C130.53934692 57.65981918 130.54744385 58.91729462 130.55578613 60.21287537 C130.48365923 66.97071121 130.30522477 71.64014273 126 77 C121.4587353 80.64736841 117.27163327 80.40947861 111.71166992 80.34057617 C110.78435059 80.34101425 109.85703125 80.34145233 108.90161133 80.34190369 C105.84434773 80.33981795 102.78763626 80.31649675 99.73046875 80.29296875 C97.60769449 80.28737204 95.48491636 80.2831023 93.36213684 80.28010559 C87.78074404 80.26866278 82.19958623 80.23920024 76.61828613 80.20599365 C70.92068663 80.17528074 65.22304908 80.16159763 59.52539062 80.14648438 C48.3501573 80.11433018 37.1750982 80.06314046 26 80 C26.03560384 78.03466797 26.07120768 76.06933594 26.10681152 74.10400391 C25.93843955 70.78736473 24.76789682 68.04295237 23.5 65 C23.0359375 63.865625 22.571875 62.73125 22.09375 61.5625 C21.55234375 60.2940625 21.55234375 60.2940625 21 59 C7.29756681 56.84068138 7.29756681 56.84068138 -5.49462891 60.60400391 C-11.172141 65.9154709 -16.10311071 72.41244282 -18 80 C-21.63 80 -25.26 80 -29 80 C-28.04454446 76.17817785 -26.66474052 72.84844186 -25.05078125 69.28515625 C-20.56369391 59.19732284 -16.51707267 48.93785802 -12.46411133 38.66967773 C-11.17667383 35.41008986 -9.88253566 32.1532153 -8.58789062 28.89648438 C-7.76001642 26.80484587 -6.9325283 24.71305451 -6.10546875 22.62109375 C-5.7221489 21.65747421 -5.33882904 20.69385468 -4.94389343 19.70103455 C-1.1594207 10.14487294 -1.1594207 10.14487294 0 0 Z M98 6 C93.81972476 18.85431586 90.20415753 31.84987857 86.64135742 44.88671875 C85.67579638 48.41780045 84.70437495 51.94723552 83.73242188 55.4765625 C83.11684243 57.72125956 82.50159539 59.96604782 81.88671875 62.2109375 C81.59617111 63.2659848 81.30562347 64.3210321 81.00627136 65.40805054 C80.74211929 66.37731476 80.47796722 67.34657898 80.20581055 68.34521484 C79.97218307 69.19852386 79.7385556 70.05183289 79.49784851 70.93099976 C78.9220182 72.96940753 78.9220182 72.96940753 79 75 C82.93260944 75.07421454 86.86494722 75.12863136 90.7980957 75.16479492 C92.79327701 75.18728333 94.78826213 75.22540198 96.78320312 75.26367188 C98.03681641 75.27333984 99.29042969 75.28300781 100.58203125 75.29296875 C101.73936768 75.3086792 102.8967041 75.32438965 104.08911133 75.34057617 C106.92954545 75.2368873 106.92954545 75.2368873 108.65866089 73.86520386 C110.59922633 71.1667437 110.37416365 69.11914034 110.37231445 65.81616211 C110.37854324 64.54151596 110.38477203 63.26686981 110.39118958 61.95359802 C110.38250242 60.56150929 110.37318454 59.16942436 110.36328125 57.77734375 C110.36276263 56.3515269 110.36328039 54.92570933 110.36479187 53.49989319 C110.36470218 50.51308506 110.35427792 47.52654702 110.33618164 44.53979492 C110.31347376 40.70725411 110.31295429 36.87510726 110.31969929 33.04251766 C110.32303684 30.0991718 110.31641361 27.15591613 110.30657005 24.21258736 C110.30271559 22.79916417 110.30157086 21.38573095 110.3031559 19.97230339 C110.3035258 17.99966054 110.28944611 16.02703081 110.2746582 14.05444336 C110.27005081 12.93098007 110.26544342 11.80751678 110.26069641 10.65000916 C110.2676622 7.84467428 110.2676622 7.84467428 108 6 C105.55987051 5.75712511 105.55987051 5.75712511 102.875 5.875 C101.25 5.91666667 99.625 5.95833333 98 6 Z M4 16 C1.54732673 21.92109084 -0.89054596 27.84811404 -3.31811523 33.77954102 C-4.14607804 35.79754808 -4.97744721 37.81416099 -5.81225586 39.8293457 C-7.01008282 42.72249281 -8.19565873 45.62039627 -9.37890625 48.51953125 C-9.75592178 49.42274612 -10.13293732 50.325961 -10.52137756 51.25654602 C-10.86180588 52.09719101 -11.20223419 52.937836 -11.55297852 53.80395508 C-11.8572023 54.54341873 -12.16142609 55.28288239 -12.47486877 56.04475403 C-13.24340951 58.18890043 -13.24340951 58.18890043 -12 61 C-11.71624512 60.43410156 -11.43249023 59.86820313 -11.14013672 59.28515625 C-8.95376822 55.64627163 -7.37973376 53.3664102 -3.16113281 52.24609375 C0.20544441 51.98846318 3.49921584 51.9428479 6.875 52 C8.62296875 51.98259766 8.62296875 51.98259766 10.40625 51.96484375 C13.27262226 51.9413489 16.1340358 51.95419547 19 52 C14.54367429 39.91390451 9.82523279 27.94328056 5 16 C4.67 16 4.34 16 4 16 Z " fill="#FEFEFE" transform="translate(336,32)"/>
<path d="M0 0 C3.97915159 -0.02886984 7.95827653 -0.04675406 11.9375 -0.0625 C13.07380859 -0.07087891 14.21011719 -0.07925781 15.38085938 -0.08789062 C16.46044922 -0.09111328 17.54003906 -0.09433594 18.65234375 -0.09765625 C20.15269165 -0.10551147 20.15269165 -0.10551147 21.68334961 -0.11352539 C24 0 24 0 25 1 C25.05027344 2.63195313 25.05027344 2.63195313 25.1015625 4.296875 C25.84781569 10.80699034 29.86705008 15.89026982 33.375 21.25 C34.06078125 22.32507813 34.7465625 23.40015625 35.453125 24.5078125 C38.18485714 28.77016498 40.91492638 32.98316111 44 37 C46.22971733 33.50035053 48.45867267 30.00021634 50.6875 26.5 C51.31333984 25.51773438 51.93917969 24.53546875 52.58398438 23.5234375 C53.81767604 21.58570189 55.04971881 19.6469154 56.2800293 17.70703125 C57.35628146 16.01313714 58.43766017 14.32247714 59.52661133 12.63671875 C59.97157959 11.94191406 60.41654785 11.24710938 60.875 10.53125 C61.25785156 9.93892578 61.64070312 9.34660156 62.03515625 8.73632812 C63.59150139 5.93553698 64.28660036 3.1130166 65 0 C68.96 0 72.92 0 77 0 C75.37356063 4.06609842 74.4010261 6.00766259 71.75 9.1953125 C68.03002526 13.84913183 64.99156313 18.7317511 62 23.875 C61.02243201 25.54000216 60.04325269 27.20405926 59.0625 28.8671875 C58.57571777 29.70918701 58.08893555 30.55118652 57.58740234 31.41870117 C56 34 56 34 54.08837891 36.57543945 C48.59169776 44.15935311 48.03526864 50.21136687 48.375 59.4375 C48.38466797 61.31598633 48.38466797 61.31598633 48.39453125 63.23242188 C48.30835841 70.75479056 48.30835841 70.75479056 52 77 C56.91034108 67.59400902 61.08212674 58.1288851 64.8125 48.1875 C65.84182761 45.4714257 66.87564543 42.75707247 67.91015625 40.04296875 C68.16662933 39.36821503 68.42310242 38.6934613 68.68734741 37.9982605 C70.39306926 33.52935668 72.17025489 29.09702743 73.99609375 24.67578125 C74.46104248 23.54567627 74.92599121 22.41557129 75.4050293 21.2512207 C76.27830076 19.14024665 77.16076273 17.03304255 78.05395508 14.93041992 C78.44349365 13.98400635 78.83303223 13.03759277 79.234375 12.0625 C79.57694336 11.24910156 79.91951172 10.43570313 80.27246094 9.59765625 C81.31464657 6.32616655 81.31464657 6.32616655 81 0 C87.93 0 94.86 0 102 0 C107.78759766 15.43359375 107.78759766 15.43359375 113.57519531 30.8671875 C113.8122884 31.49941223 114.04938148 32.13163696 114.29365921 32.78302002 C114.76847093 34.04923195 115.24322052 35.31546717 115.71790695 36.58172607 C116.88007581 39.68166401 118.04353372 42.7811081 119.20880127 45.87988281 C121.1215293 50.969132 123.03019883 56.05861898 124.87792969 61.171875 C125.14693085 61.91026611 125.41593201 62.64865723 125.69308472 63.40942383 C126.3610983 65.24865449 127.020637 67.09095776 127.67919922 68.93359375 C129.10947398 72.25415772 130.97673898 75.01371615 133 78 C133 78.66 133 79.32 133 80 C124.42 80 115.84 80 107 80 C107 77.36 107 74.72 107 72 C105.9729435 68.37412707 105.9729435 68.37412707 104.5 65 C103.80390625 63.2984375 103.80390625 63.2984375 103.09375 61.5625 C102.7328125 60.716875 102.371875 59.87125 102 59 C88.29756681 56.84068138 88.29756681 56.84068138 75.50537109 60.60400391 C69.827859 65.9154709 64.89688929 72.41244282 63 80 C50.46 80 37.92 80 25 80 C26 75 26 75 27 73 C29.42549184 54.64740575 27.85391697 41.68590945 16.69921875 26.7890625 C16.06677246 25.97856445 15.43432617 25.16806641 14.78271484 24.33300781 C12.24299203 21.00931688 10.06421467 17.49718697 7.875 13.9375 C5.94697023 10.90291618 4.06358652 8.07610442 1.7578125 5.31640625 C0 3 0 3 0 0 Z M85 16 C82.54732673 21.92109084 80.10945404 27.84811404 77.68188477 33.77954102 C76.85392196 35.79754808 76.02255279 37.81416099 75.18774414 39.8293457 C73.98991718 42.72249281 72.80434127 45.62039627 71.62109375 48.51953125 C71.24407822 49.42274612 70.86706268 50.325961 70.47862244 51.25654602 C70.13819412 52.09719101 69.79776581 52.937836 69.44702148 53.80395508 C69.1427977 54.54341873 68.83857391 55.28288239 68.52513123 56.04475403 C67.75659049 58.18890043 67.75659049 58.18890043 69 61 C69.28375488 60.43410156 69.56750977 59.86820313 69.85986328 59.28515625 C72.04623178 55.64627163 73.62026624 53.3664102 77.83886719 52.24609375 C81.20544441 51.98846318 84.49921584 51.9428479 87.875 52 C89.62296875 51.98259766 89.62296875 51.98259766 91.40625 51.96484375 C94.27262226 51.9413489 97.1340358 51.95419547 100 52 C95.54367429 39.91390451 90.82523279 27.94328056 86 16 C85.67 16 85.34 16 85 16 Z " fill="#FEFEFE" transform="translate(576,32)"/>
<path d="M0 0 C7.06576669 -0.07595253 14.13142844 -0.12855861 21.19750977 -0.16479492 C23.60217218 -0.17989816 26.00680698 -0.20038208 28.41137695 -0.22631836 C31.86416431 -0.26263351 35.31658804 -0.279711 38.76953125 -0.29296875 C39.84773636 -0.30845261 40.92594147 -0.32393646 42.03681946 -0.33988953 C43.03763046 -0.34011612 44.03844147 -0.34034271 45.06958008 -0.34057617 C45.95116287 -0.34723801 46.83274567 -0.35389984 47.74104309 -0.36076355 C50.44146632 0.07050376 51.31165959 0.90529413 53 3 C53.33 2.01 53.66 1.02 54 0 C61.06564241 -0.12658532 68.13099346 -0.21426063 75.19750977 -0.2746582 C77.60224332 -0.29983101 80.00690015 -0.33397182 82.41137695 -0.37719727 C85.86428733 -0.43772467 89.31618795 -0.46618244 92.76953125 -0.48828125 C94.38683891 -0.52699089 94.38683891 -0.52699089 96.03681946 -0.56648254 C98.78526343 -0.56751967 101.30603761 -0.5450299 104 0 C106.2019043 2.53051758 106.2019043 2.53051758 107 5 C107 3.35 107 1.7 107 0 C111.62 0 116.24 0 121 0 C125.12594338 9.73041431 128.93609267 19.55819471 132.6875 29.4375 C133.56014347 31.73081573 134.43331585 34.02392899 135.30683899 36.31690979 C135.84504868 37.73019635 136.38267206 39.14370639 136.91960144 40.55747986 C138.24857692 44.05229067 139.61120568 47.5280142 141 51 C135.39 51 129.78 51 124 51 C123.505 47.04 123.505 47.04 123 43 C122.67826628 40.99810127 122.34951621 38.99723547 122 37 C111.83295235 36.29145197 111.83295235 36.29145197 102.96875 40.4453125 C100.27046841 43.80064318 97.9264216 47.1471568 96 51 C93.69 51 91.38 51 89 51 C89.2582959 50.35651611 89.5165918 49.71303223 89.78271484 49.05004883 C91.35766292 45.10383417 92.91709029 41.15157021 94.4765625 37.19921875 C94.80667328 36.36284378 95.13678406 35.52646881 95.47689819 34.66474915 C96.52637278 32.00570844 97.57568861 29.34660511 98.625 26.6875 C99.33853118 24.87955315 100.05207273 23.0716104 100.765625 21.26367188 C102.51053685 16.84249534 104.25530637 12.42126265 106 8 C102.38047052 4.44714606 98.56194538 4.46127923 93.75 4.3125 C92.63238281 4.26125977 92.63238281 4.26125977 91.4921875 4.20898438 C89.66197508 4.12685946 87.83101331 4.06174347 86 4 C86.11829165 10.05075119 86.24254338 16.10133957 86.37231445 22.15185547 C86.41562009 24.21008987 86.45729829 26.26835918 86.49731445 28.32666016 C86.55512275 31.28558879 86.61878696 34.2443424 86.68359375 37.203125 C86.70030624 38.12305237 86.71701874 39.04297974 86.73423767 39.99078369 C86.7641555 41.28166901 86.7641555 41.28166901 86.79467773 42.59863281 C86.81799416 43.73114471 86.81799416 43.73114471 86.84178162 44.88653564 C86.96562971 47.34258355 86.96562971 47.34258355 88 51 C82.39 51 76.78 51 71 51 C71.33 49.68 71.66 48.36 72 47 C72.1096445 45.53538048 72.17509036 44.06703953 72.20532227 42.59863281 C72.22526749 41.7380426 72.24521271 40.87745239 72.26576233 39.99078369 C72.28247482 39.07085632 72.29918732 38.15092896 72.31640625 37.203125 C72.3475779 35.77996979 72.3475779 35.77996979 72.37937927 34.32806396 C72.44467934 31.30211518 72.50366888 28.2760808 72.5625 25.25 C72.6057038 23.19660579 72.64931869 21.14322018 72.69335938 19.08984375 C72.80034073 14.0599832 72.90166323 9.03003668 73 4 C70.37405216 4.1136515 67.74988453 4.24039054 65.125 4.375 C64.37863281 4.4059375 63.63226562 4.436875 62.86328125 4.46875 C58.46526812 4.55643831 58.46526812 4.55643831 55 7 C52.5 7.25 52.5 7.25 50 7 C49.34 6.34 48.68 5.68 48 5 C45.26565038 4.6936141 42.61720179 4.4886664 39.875 4.375 C39.12089844 4.33632812 38.36679687 4.29765625 37.58984375 4.2578125 C35.72696816 4.16348969 33.86351745 4.08065338 32 4 C32.11829165 10.05075119 32.24254338 16.10133957 32.37231445 22.15185547 C32.41562009 24.21008987 32.45729829 26.26835918 32.49731445 28.32666016 C32.55512275 31.28558879 32.61878696 34.2443424 32.68359375 37.203125 C32.70030624 38.12305237 32.71701874 39.04297974 32.73423767 39.99078369 C32.7641555 41.28166901 32.7641555 41.28166901 32.79467773 42.59863281 C32.81799416 43.73114471 32.81799416 43.73114471 32.84178162 44.88653564 C32.96562971 47.34258355 32.96562971 47.34258355 34 51 C28.39 51 22.78 51 17 51 C17.33 49.68 17.66 48.36 18 47 C18.1096445 45.53538048 18.17509036 44.06703953 18.20532227 42.59863281 C18.22526749 41.7380426 18.24521271 40.87745239 18.26576233 39.99078369 C18.29083107 38.61089264 18.29083107 38.61089264 18.31640625 37.203125 C18.33718735 36.25435486 18.35796844 35.30558472 18.37937927 34.32806396 C18.44467934 31.30211518 18.50366888 28.2760808 18.5625 25.25 C18.6057038 23.19660579 18.64931869 21.14322018 18.69335938 19.08984375 C18.80034073 14.0599832 18.90166323 9.03003668 19 4 C16.37405216 4.1136515 13.74988453 4.24039054 11.125 4.375 C10.37863281 4.4059375 9.63226562 4.436875 8.86328125 4.46875 C4.46526812 4.55643831 4.46526812 4.55643831 1 7 C0.01 7 -0.98 7 -2 7 C-1.34 4.69 -0.68 2.38 0 0 Z M110 11 C108.46369915 14.59776804 106.94866722 18.20411111 105.4375 21.8125 C104.99986328 22.83666016 104.56222656 23.86082031 104.11132812 24.91601562 C103.70205078 25.89892578 103.29277344 26.88183594 102.87109375 27.89453125 C102.48880615 28.80050049 102.10651855 29.70646973 101.71264648 30.63989258 C100.71771404 33.11473972 100.71771404 33.11473972 102 36 C102.66 35.34 103.32 34.68 104 34 C106.73434962 33.6936141 109.38279821 33.4886664 112.125 33.375 C113.25615234 33.31699219 113.25615234 33.31699219 114.41015625 33.2578125 C116.27303184 33.16348969 118.13648255 33.08065338 120 33 C118.71977168 29.51651564 117.42393056 26.03904944 116.125 22.5625 C115.57779297 21.07266602 115.57779297 21.07266602 115.01953125 19.55273438 C114.66503906 18.60849609 114.31054688 17.66425781 113.9453125 16.69140625 C113.62062988 15.81685791 113.29594727 14.94230957 112.96142578 14.04125977 C112.17755785 11.83102483 112.17755785 11.83102483 110 11 Z M100 36 C101 38 101 38 101 38 Z " fill="#FEFEFE" transform="translate(591,131)"/>
<path d="M0 0 C1.37495408 -0.01449433 2.75036523 -0.0011956 4.12495422 0.03364563 C4.87641724 0.0329155 5.62788025 0.03218536 6.40211487 0.03143311 C8.88638969 0.03491712 11.36879018 0.07381306 13.85273743 0.11299133 C15.57479833 0.12231665 17.29687251 0.12943409 19.01895142 0.13442993 C23.55176917 0.15352207 28.08378598 0.2026414 32.61628723 0.25794983 C37.24121769 0.30909488 41.86627757 0.33193379 46.4914093 0.35713196 C55.56663103 0.41075844 64.64125826 0.49609765 73.71601868 0.60127258 C74.39010176 1.86818766 75.05502364 3.13998007 75.71601868 4.41377258 C76.08726868 5.1214679 76.45851868 5.82916321 76.84101868 6.55830383 C77.71601868 8.60127258 77.71601868 8.60127258 77.71601868 11.60127258 C76.06601868 11.27127258 74.41601868 10.94127258 72.71601868 10.60127258 C72.71601868 9.94127258 72.71601868 9.28127258 72.71601868 8.60127258 C69.604583 7.56412736 67.22133772 7.40095397 63.95429993 7.28486633 C62.27690735 7.22202454 62.27690735 7.22202454 60.56562805 7.15791321 C59.39838196 7.1185968 58.23113586 7.0792804 57.02851868 7.03877258 C55.84967102 6.99558899 54.67082336 6.9524054 53.45625305 6.90791321 C50.54295985 6.80176082 47.62958111 6.69971016 44.71601868 6.60127258 C44.77732492 15.10321145 44.85449892 23.60479724 44.95173359 32.10639381 C44.99639312 36.05437286 45.03565872 40.00224977 45.06245422 43.95039368 C45.08853167 47.76314084 45.12896479 51.57549404 45.17920494 55.38799667 C45.19584378 56.83993491 45.20737662 58.29194124 45.21363258 59.74396133 C45.22330673 61.78356629 45.25140234 63.82217016 45.28364563 65.86152649 C45.30030022 67.60026535 45.30030022 67.60026535 45.31729126 69.37413025 C45.76447433 72.99345354 46.98322973 75.42060064 48.71601868 78.60127258 C48.71601868 79.26127258 48.71601868 79.92127258 48.71601868 80.60127258 C39.80601868 80.60127258 30.89601868 80.60127258 21.71601868 80.60127258 C23.71601868 74.60127258 23.71601868 74.60127258 24.71601868 72.60127258 C24.83659923 70.50841098 24.89344545 68.41177481 24.92134094 66.31562805 C24.93124054 65.67160034 24.94114014 65.02757263 24.95133972 64.36402893 C24.98296367 62.23221023 25.00771555 60.10036923 25.03242493 57.96846008 C25.05299369 56.49157629 25.07399015 55.0146984 25.09539795 53.53782654 C25.15062666 49.64821648 25.20003237 45.75855322 25.24824524 41.86885071 C25.29845445 37.90070351 25.35414353 33.9326337 25.40937805 29.96455383 C25.51696939 22.17685892 25.61841216 14.38909972 25.71601868 6.60127258 C21.63164587 6.65310926 17.54939397 6.74817968 13.46601868 6.85127258 C12.30715149 6.86545227 11.1482843 6.87963196 9.95429993 6.89424133 C8.83926086 6.9264679 7.7242218 6.95869446 6.57539368 6.99189758 C5.54897766 7.01284485 4.52256165 7.03379211 3.46504211 7.05537415 C0.06515367 7.73052073 -0.93168323 9.15141936 -3.28398132 11.60127258 C-4.60398132 11.60127258 -5.92398132 11.60127258 -7.28398132 11.60127258 C-6.06409982 1.11029163 -6.06409982 1.11029163 0 0 Z " fill="#FEFEFE" transform="translate(499.2839813232422,31.398727416992188)"/>
<path d="M0 0 C8.91 0 17.82 0 27 0 C25 6 25 6 24 8 C23.8931849 10.00014879 23.8511393 12.00387462 23.83886719 14.00683594 C23.82925964 15.26864685 23.8196521 16.53045776 23.80975342 17.83050537 C23.80490461 19.21512675 23.80062598 20.59975022 23.796875 21.984375 C23.79112228 23.40203859 23.78536456 24.81970217 23.77960205 26.23736572 C23.76908961 29.21326052 23.76324909 32.1891283 23.75976562 35.16503906 C23.75429167 38.96923174 23.73028868 42.77306454 23.70179367 46.57714462 C23.68311951 49.50776187 23.67795908 52.43829344 23.67642975 55.36896515 C23.67341156 56.77073374 23.66541123 58.17250112 23.65224457 59.57421112 C23.63509216 61.54126341 23.63892236 63.50846432 23.64355469 65.47558594 C23.63990906 66.59318298 23.63626343 67.71078003 23.63250732 68.86224365 C24.05238605 72.44728692 25.28730378 74.8507074 27 78 C27 78.66 27 79.32 27 80 C18.09 80 9.18 80 0 80 C1 75 1 75 2 73 C2.10189312 70.92788257 2.13842271 68.85244189 2.14526367 66.77783203 C2.15164352 65.46952423 2.15802338 64.16121643 2.16459656 62.81326294 C2.16612532 61.37811317 2.16723923 59.9429629 2.16796875 58.5078125 C2.17118117 57.04051684 2.17454524 55.5732215 2.17805481 54.10592651 C2.18404808 51.02747861 2.18589454 47.94905879 2.18530273 44.87060547 C2.18520118 40.92729445 2.19884586 36.98416376 2.21607494 33.04089546 C2.22719866 30.0091367 2.22922182 26.97742146 2.22869301 23.94564438 C2.22987285 22.49199681 2.2342949 21.03834811 2.24202538 19.58472061 C2.25183085 17.55015636 2.24768152 15.51553934 2.24291992 13.48095703 C2.24434494 12.32338898 2.24576996 11.16582092 2.24723816 9.97317505 C2.00347508 7.0417897 1.39523507 5.52526284 0 3 C0 2.01 0 1.02 0 0 Z " fill="#FEFEFE" transform="translate(466,32)"/>
<path d="M0 0 C5.61 0 11.22 0 17 0 C16.67 1.65 16.34 3.3 16 5 C15.9182005 7.72401121 15.88326384 10.42151282 15.90234375 13.14453125 C15.90335083 13.82753296 15.90435791 14.51053467 15.90539551 15.2142334 C15.91059743 17.7470062 15.92455855 20.27975492 15.9375 22.8125 C15.958125 28.484375 15.97875 34.15625 16 40 C19.63 26.8 23.26 13.6 27 0 C45 0 45 0 50 4 C52.51441064 9.02882129 51.31317116 16.88802491 51.35009766 22.48388672 C51.36663591 24.32092984 51.39389795 26.15790918 51.43212891 27.99462891 C51.48705503 30.64779936 51.5087963 33.29946163 51.5234375 35.953125 C51.54610687 36.76896057 51.56877625 37.58479614 51.59213257 38.425354 C51.57687845 42.56746807 51.11127926 44.7903779 49.12670898 48.52880859 C44.62144476 52.08953979 41.03509681 51.76237985 35.44921875 51.5859375 C34.43527542 51.57744781 33.42133209 51.56895813 32.37666321 51.56021118 C29.14585024 51.52668868 25.91755539 51.45140836 22.6875 51.375 C20.49417673 51.34489905 18.30081425 51.31752348 16.10742188 51.29296875 C10.73742561 51.22690184 5.3688927 51.12656549 0 51 C0.16233124 50.42946899 0.32466248 49.85893799 0.49191284 49.27111816 C1.00331287 46.98519169 1.12689033 45.00059367 1.12939453 42.66210938 C1.13254669 41.81442993 1.13569885 40.96675049 1.13894653 40.09338379 C1.1369223 39.18600464 1.13489807 38.27862549 1.1328125 37.34375 C1.13376923 36.40446655 1.13472595 35.46518311 1.13571167 34.49743652 C1.13639144 32.51375257 1.13455132 30.53006638 1.13037109 28.54638672 C1.12502 25.51134237 1.13032298 22.476446 1.13671875 19.44140625 C1.13605793 17.51302051 1.1347767 15.58463486 1.1328125 13.65625 C1.13483673 12.74887085 1.13686096 11.8414917 1.13894653 10.90661621 C1.13421829 9.63509705 1.13421829 9.63509705 1.12939453 8.33789062 C1.12859894 7.59494751 1.12780334 6.85200439 1.12698364 6.08654785 C1.04275615 3.65208376 1.04275615 3.65208376 0 0 Z M30 4 C28.42672847 9.47906264 26.86034153 14.96002881 25.30029297 20.44287109 C24.76865226 22.30766818 24.23513652 24.17193177 23.69970703 26.03564453 C22.93027695 28.71508843 22.16761745 31.39638056 21.40625 34.078125 C21.16563843 34.91055725 20.92502686 35.7429895 20.67712402 36.60064697 C20.45689575 37.38115417 20.23666748 38.16166138 20.00976562 38.96582031 C19.81435181 39.64976868 19.61893799 40.33371704 19.41760254 41.03839111 C18.86118558 43.31779318 18.86118558 43.31779318 19 47 C21.97922593 47.02683987 24.95821295 47.04676037 27.9375 47.0625 C28.78763672 47.07087891 29.63777344 47.07925781 30.51367188 47.08789062 C31.32255859 47.09111328 32.13144531 47.09433594 32.96484375 47.09765625 C33.7137085 47.10289307 34.46257324 47.10812988 35.23413086 47.11352539 C37.02667739 47.19341752 37.02667739 47.19341752 38 46 C38.101137 42.98191937 38.13968909 39.98719487 38.1328125 36.96875 C38.13376923 36.06249878 38.13472595 35.15624756 38.13571167 34.22253418 C38.13639353 32.30248953 38.13453882 30.38244259 38.13037109 28.46240234 C38.12502292 25.51264296 38.13031588 22.56303586 38.13671875 19.61328125 C38.13605797 17.75260383 38.13477681 15.8919265 38.1328125 14.03125 C38.13483673 13.14272339 38.13686096 12.25419678 38.13894653 11.33874512 C38.525828 7.35171142 38.525828 7.35171142 37 4 C34.66702567 3.95907063 32.33294775 3.95758277 30 4 Z " fill="#FEFEFE" transform="translate(494,131)"/>
<path d="M0 0 C5.61 0 11.22 0 17 0 C16.67 1.65 16.34 3.3 16 5 C15.91963543 6.44202448 15.88200323 7.88704363 15.88647461 9.33129883 C15.88655014 10.151772 15.88662567 10.97224518 15.88670349 11.81758118 C15.89186478 12.6885997 15.89702606 13.55961823 15.90234375 14.45703125 C15.90446617 15.81147591 15.90446617 15.81147591 15.90663147 17.19328308 C15.91221177 20.06638963 15.92476066 22.93941716 15.9375 25.8125 C15.94251755 27.76497283 15.94708001 29.71744689 15.95117188 31.66992188 C15.96132221 36.44666924 15.98090147 41.22324656 16 46 C23.59 46 31.18 46 39 46 C39.0229799 40.25247257 39.04288634 34.50510516 39.05493164 28.75756836 C39.05995422 26.80313577 39.06677349 24.84870694 39.07543945 22.89428711 C39.08759589 20.08185907 39.09324913 17.26948081 39.09765625 14.45703125 C39.10281754 13.58601273 39.10797882 12.7149942 39.11329651 11.81758118 C39.11367154 7.74374461 39.02821533 3.97410561 38 0 C40.64 0 43.28 0 46 0 C45.83790039 0.63357422 45.67580078 1.26714844 45.50878906 1.91992188 C44.82567067 6.05534495 44.86440005 10.0970594 44.859375 14.28125 C44.84105662 16.11068963 44.82148722 17.94011709 44.80078125 19.76953125 C44.77176652 22.64002252 44.74999835 25.50972336 44.74951172 28.38037109 C44.74617762 31.16053606 44.7116482 33.93889831 44.671875 36.71875 C44.6789447 37.57408325 44.6860144 38.4294165 44.69329834 39.31066895 C44.60768052 43.50583729 44.34211356 45.50465969 41.90136719 49.03857422 C38.31479653 51.46322153 36.21543998 51.64447527 31.90625 51.6640625 C31.23710571 51.66884613 30.56796143 51.67362976 29.87854004 51.67855835 C28.46994666 51.68194656 27.06127348 51.67281922 25.65283203 51.65185547 C23.50504114 51.62506289 21.36247347 51.65162766 19.21484375 51.68359375 C17.84113438 51.68028945 16.46742824 51.67388276 15.09375 51.6640625 C13.85302734 51.65842285 12.61230469 51.6527832 11.33398438 51.64697266 C7.13990172 50.83309458 5.6712839 49.25662744 3 46 C1.3268357 42.65367139 1.77743544 38.87878184 1.71875 35.1953125 C1.70034058 34.31978729 1.68193115 33.44426208 1.66296387 32.54220581 C1.60412143 29.73653989 1.55136388 26.9308122 1.5 24.125 C1.4322862 20.43997708 1.35856098 16.75514511 1.28125 13.0703125 C1.26088684 11.79826462 1.26088684 11.79826462 1.2401123 10.5005188 C1.22339478 9.70644623 1.20667725 8.91237366 1.18945312 8.09423828 C1.17692505 7.39855743 1.16439697 6.70287659 1.15148926 5.9861145 C1.0282545 3.63687445 1.0282545 3.63687445 0 0 Z " fill="#FEFEFE" transform="translate(544,131)"/>
<path d="M0 0 C3.47022279 1.15674093 3.62883447 1.60389255 5.26953125 4.68359375 C5.68058105 5.44172363 6.09163086 6.19985352 6.51513672 6.98095703 C6.9432666 7.79161621 7.37139648 8.60227539 7.8125 9.4375 C8.70570464 11.09056125 9.60022767 12.74291084 10.49609375 14.39453125 C10.92647949 15.19197754 11.35686523 15.98942383 11.80029297 16.81103516 C13.25299852 19.46161676 14.7939277 22.04918657 16.375 24.625 C18.8325948 28.64651877 20.95561527 32.75397017 23 37 C22 38 22 38 20.24729919 38.12025452 C19.48562943 38.11803391 18.72395966 38.11581329 17.93920898 38.11352539 C17.07839218 38.11344986 16.21757538 38.11337433 15.33067322 38.11329651 C14.39526199 38.10813522 13.45985077 38.10297394 12.49609375 38.09765625 C11.54307877 38.0962413 10.59006378 38.09482635 9.60816956 38.09336853 C6.55124835 38.08775152 3.49439923 38.07519616 0.4375 38.0625 C-1.62955624 38.05748719 -3.69661362 38.05292391 -5.76367188 38.04882812 C-10.84247588 38.03777656 -15.9212257 38.02050055 -21 38 C-20.16553015 34.2909565 -18.71451329 31.50229889 -16.796875 28.203125 C-15.82041016 26.51703125 -15.82041016 26.51703125 -14.82421875 24.796875 C-14.48310059 24.21357422 -14.14198242 23.63027344 -13.79052734 23.02929688 C-12.76304484 21.27230661 -11.74219689 19.51160823 -10.72265625 17.75 C-7.24667813 11.76776654 -3.71082196 5.83951053 0 0 Z " fill="#FC1312" transform="translate(125,90)"/>
<path d="M0 0 C-0.33 0.99 -0.66 1.98 -1 3 C-0.60602665 5.63804589 -0.60602665 5.63804589 0 8 C0.66 8 1.32 8 2 8 C2.33 9.98 2.66 11.96 3 14 C3.66 14 4.32 14 5 14 C5.33 16.31 5.66 18.62 6 21 C6.99 21.33 7.98 21.66 9 22 C9.33 24.31 9.66 26.62 10 29 C10.99 29.33 11.98 29.66 13 30 C13 31.65 13 33.3 13 35 C14.485 35.495 14.485 35.495 16 36 C16.33 38.31 16.66 40.62 17 43 C17.66 43 18.32 43 19 43 C19.66 45.31 20.32 47.62 21 50 C22.65 50 24.3 50 26 50 C26 49.34 26 48.68 26 48 C26.99 48 27.98 48 29 48 C28.67 49.65 28.34 51.3 28 53 C26.02 53.495 26.02 53.495 24 54 C24 55.65 24 57.3 24 59 C22.515 59.495 22.515 59.495 21 60 C21 59.01 21 58.02 21 57 C19.515 56.505 19.515 56.505 18 56 C17.67 53.69 17.34 51.38 17 49 C16.34 49 15.68 49 15 49 C15.33 49.99 15.66 50.98 16 52 C15.979375 52.845625 15.95875 53.69125 15.9375 54.5625 C15.72472678 57.18389309 15.72472678 57.18389309 18 59 C18 59.99 18 60.98 18 62 C18.66 62 19.32 62 20 62 C24.82649909 67.45053129 25.63663609 74.10228559 27.0625 81.0625 C27.54510009 83.38845323 28.03570273 85.71276363 28.53515625 88.03515625 C28.745354 89.0600415 28.95555176 90.08492676 29.17211914 91.14086914 C30.04186532 94.14458411 31.35026236 96.36196399 33 99 C33 99.66 33 100.32 33 101 C33.66 101 34.32 101 35 101 C35 101.99 35 102.98 35 104 C35.78375 104.309375 36.5675 104.61875 37.375 104.9375 C40 106 40 106 42 107 C42 107.99 42 108.98 42 110 C41.01 110.33 40.02 110.66 39 111 C39 110.34 39 109.68 39 109 C37.02 109.495 37.02 109.495 35 110 C35 109.34 35 108.68 35 108 C33.85845459 107.65376587 33.85845459 107.65376587 32.69384766 107.30053711 C27.7354923 104.90673985 26.09413949 99.87665107 24 95 C22.60833939 90.69475455 21.58058375 86.35772758 20.625 81.9375 C20.36589844 80.81150391 20.10679687 79.68550781 19.83984375 78.52539062 C18 70.43105159 18 70.43105159 18 68 C17.34 68 16.68 68 16 68 C15.33333333 66.66666667 14.66666667 65.33333333 14 64 C13.649375 63.319375 13.29875 62.63875 12.9375 61.9375 C10.95444151 57.83917912 10.75813384 54.51483508 11 50 C11.66 49.01 12.32 48.02 13 47 C13.38499891 45.34450469 13.72793135 43.6777567 14 42 C12.515 41.505 12.515 41.505 11 41 C10.26919734 39.02253397 9.60578253 37.01927511 9 35 C8.34 34.01 7.68 33.02 7 32 C6.31867549 30.33927151 5.65257873 28.672233 5 27 C3.8293129 24.56562729 2.56534559 22.20149461 1.2734375 19.828125 C-4.99703979 8.12171276 -4.99703979 8.12171276 -4 1 C-2 0 -2 0 0 0 Z " fill="#FFFFFF" transform="translate(714,55)"/>
<path d="M0 0 C0.33 0 0.66 0 1 0 C1.25185185 5.54074074 1.25185185 5.54074074 -0.0625 7.9375 C-1.51428961 11.13143714 -0.75537538 13.66375875 0 17 C0.66 17.33 1.32 17.66 2 18 C5.97935624 24.70779635 7.53601499 32.42132595 9.25 39.9375 C9.518125 41.07251953 9.78625 42.20753906 10.0625 43.37695312 C12 51.66569675 12 51.66569675 12 54 C12.66 54 13.32 54 14 54 C14.33 55.65 14.66 57.3 15 59 C15.66 59 16.32 59 17 59 C17 59.99 17 60.98 17 62 C18.98 62.66 20.96 63.32 23 64 C23 65.32 23 66.64 23 68 C18.17054764 67.55074862 15.45263456 66.45263456 12 63 C12 62.01 12 61.02 12 60 C11.34 60 10.68 60 10 60 C9.71125 59.195625 9.4225 58.39125 9.125 57.5625 C8.26737432 54.8673532 8.26737432 54.8673532 6 54 C4.81084703 50.64927713 4.11545982 47.14869148 3.3125 43.6875 C3.07466797 42.72392578 2.83683594 41.76035156 2.59179688 40.76757812 C2.37201172 39.83751953 2.15222656 38.90746094 1.92578125 37.94921875 C1.62281128 36.67050903 1.62281128 36.67050903 1.3137207 35.3659668 C0.98843741 32.91279921 1.23076561 31.33126834 2 29 C1.34 29 0.68 29 0 29 C0 27.35 0 25.7 0 24 C-0.99 23.67 -1.98 23.34 -3 23 C-4.1875 20.4375 -4.1875 20.4375 -5 18 C-5.33 18 -5.66 18 -6 18 C-6.02696365 16.20841511 -6.04637917 14.41671527 -6.0625 12.625 C-6.07410156 11.62726563 -6.08570313 10.62953125 -6.09765625 9.6015625 C-6 7 -6 7 -5 5 C-4.34 5 -3.68 5 -3 5 C-2.5359375 4.0409375 -2.5359375 4.0409375 -2.0625 3.0625 C-1 1 -1 1 0 0 Z " fill="#FFFFFF" transform="translate(721,102)"/>
<path d="M0 0 C0.99 0 1.98 0 3 0 C3.33 1.65 3.66 3.3 4 5 C4.66 5 5.32 5 6 5 C6 5.99 6 6.98 6 8 C6.99 8.33 7.98 8.66 9 9 C9 9.99 9 10.98 9 12 C9.66 12 10.32 12 11 12 C11 12.66 11 13.32 11 14 C11.66 14 12.32 14 13 14 C13 14.99 13 15.98 13 17 C8.25 16.125 8.25 16.125 6 15 C6 14.01 6 13.02 6 12 C5.01 11.67 4.02 11.34 3 11 C0.1355568 7.28683289 -0.32332002 4.63425362 0 0 Z " fill="#FFFFFF" transform="translate(695,39)"/>
<path d="M0 0 C0.495 1.485 0.495 1.485 1 3 C-11.87 3 -24.74 3 -38 3 C-35.14428794 0.14428794 -32.2674142 0.64678115 -28.4375 0.5859375 C-27.69040771 0.56657135 -26.94331543 0.5472052 -26.17358398 0.5272522 C-23.78250607 0.46741282 -21.3913788 0.42108036 -19 0.375 C-17.38799971 0.33681934 -15.77601979 0.29776756 -14.1640625 0.2578125 C-3.49499848 0 -3.49499848 0 0 0 Z " fill="#FB0305" transform="translate(145,123)"/>
<path d="M0 0 C2.375 0.625 2.375 0.625 5 2 C6.74051798 5.72968139 7.24058415 8.91006939 7 13 C5.35 12.67 3.7 12.34 2 12 C1.34 10.02 0.68 8.04 0 6 C-0.66 6 -1.32 6 -2 6 C-1.125 1.125 -1.125 1.125 0 0 Z " fill="#FFFFFF" transform="translate(738,114)"/>
<path d="M0 0 C0.99 0.99 1.98 1.98 3 3 C2.67 3.66 2.34 4.32 2 5 C-12.19 5 -26.38 5 -41 5 C-40.67 4.01 -40.34 3.02 -40 2 C-40 2.66 -40 3.32 -40 4 C-34.62468167 3.88192372 -29.24955487 3.75768794 -23.87451172 3.62768555 C-22.04512425 3.58431435 -20.21569573 3.54264089 -18.38623047 3.50268555 C-15.75996514 3.44503582 -13.1339069 3.38132635 -10.5078125 3.31640625 C-9.27649094 3.29133751 -9.27649094 3.29133751 -8.02029419 3.26576233 C-3.8766304 3.2568613 -3.8766304 3.2568613 0 2 C0 1.34 0 0.68 0 0 Z " fill="#FBA7A1" transform="translate(145,123)"/>
<path d="M0 0 C0.25 2.3125 0.25 2.3125 0 5 C-1.625 6.9375 -1.625 6.9375 -4 8 C-7.25 7.1875 -7.25 7.1875 -10 6 C-9 3 -9 3 -6.6875 1.3125 C-4 0 -4 0 0 0 Z " fill="#FFFFFF" transform="translate(753,129)"/>
<path d="M0 0 C0.99 0.33 1.98 0.66 3 1 C4.1875 4.0625 4.1875 4.0625 5 7 C3.35 7.33 1.7 7.66 0 8 C0.33 6.35 0.66 4.7 1 3 C0.34 3 -0.32 3 -1 3 C-0.67 2.01 -0.34 1.02 0 0 Z " fill="#FA5251" transform="translate(125,90)"/>
<path d="M0 0 C2.50037734 2.17424117 3.43628586 3.73045798 4 7 C3.34 7 2.68 7 2 7 C2 6.34 2 5.68 2 5 C1.34 5 0.68 5 0 5 C-0.33 5.66 -0.66 6.32 -1 7 C-0.67 4.69 -0.34 2.38 0 0 Z " fill="#F85455" transform="translate(130,97)"/>
</svg>
